<svg xmlns="http://www.w3.org/2000/svg" xmlns:xlink="http://www.w3.org/1999/xlink" viewBox="0 0 313.44 35.6"><defs><style>.cls-1{fill:none;}.cls-2,.cls-3{fill:#fff;}.cls-2{opacity:0.5;}.cls-4{clip-path:url(#clip-path);}</style><clipPath id="clip-path"><path class="cls-1" d="M138.44-.71V36.42h175V-.71ZM307.9,23.95H139.69V15.49H307.9Z"/></clipPath></defs><title>Logo-white</title><g id="Layer_1" data-name="Layer 1"><path class="cls-2" d="M4.58,31.37H21V35.1H0V.49H4.58Z"/><path class="cls-2" d="M45.75,19.1h-15V31.37H48.17V35.1h-22V.49H47.94V4.22H30.75V15.37h15Z"/><path class="cls-2" d="M64.05,19.67Q58.18,18,55.51,15.52a7.92,7.92,0,0,1-2.67-6.07A8.37,8.37,0,0,1,56.1,2.69,13,13,0,0,1,64.6,0,14.18,14.18,0,0,1,71,1.39a10.46,10.46,0,0,1,4.33,3.8,9.73,9.73,0,0,1,1.53,5.3H72.23a6.33,6.33,0,0,0-2-4.95,8.12,8.12,0,0,0-5.63-1.8,8.31,8.31,0,0,0-5.26,1.49,5,5,0,0,0-1.89,4.13A4.47,4.47,0,0,0,59.24,13a17.61,17.61,0,0,0,6.11,2.68,28.34,28.34,0,0,1,6.75,2.68,10.25,10.25,0,0,1,3.61,3.41,8.7,8.7,0,0,1,1.18,4.59A8.08,8.08,0,0,1,73.61,33q-3.28,2.53-8.77,2.53a16.27,16.27,0,0,1-6.66-1.37,11.2,11.2,0,0,1-4.77-3.74,9.14,9.14,0,0,1-1.68-5.4h4.59a6,6,0,0,0,2.32,5,9.76,9.76,0,0,0,6.19,1.82,9,9,0,0,0,5.54-1.47,4.79,4.79,0,0,0,1.93-4,4.7,4.7,0,0,0-1.78-3.93A20.57,20.57,0,0,0,64.05,19.67Z"/><path class="cls-2" d="M102.3,19.1h-15V31.37h17.42V35.1h-22V.49h21.75V4.22H87.3V15.37h15Z"/><path class="cls-2" d="M123.09,21.1H115v14h-4.59V.49h11.46q5.85,0,9,2.66T134,10.9a9.32,9.32,0,0,1-1.75,5.63,10.43,10.43,0,0,1-4.86,3.59l8.13,14.69v.29h-4.9ZM115,17.37h7a7.91,7.91,0,0,0,5.41-1.76,6,6,0,0,0,2-4.72A6.27,6.27,0,0,0,127.48,6,8.1,8.1,0,0,0,122,4.22h-7Z"/><path class="cls-3" d="M140.37,21.58V17.85H300.32l2.84,3.73Z"/><g class="cls-4"><path class="cls-3" d="M149.17,19l-4.23,4.4V35.1h-4.56V.49h4.56V17.6L160.32.49h5.51L152.21,15.77,166.9,35.1h-5.47Z"/><path class="cls-3" d="M183.58,21.1h-8.13v14h-4.59V.49h11.46q5.85,0,9,2.66t3.15,7.75a9.32,9.32,0,0,1-1.75,5.63,10.43,10.43,0,0,1-4.86,3.59L196,34.81v.29h-4.9Zm-8.13-3.73h7a7.91,7.91,0,0,0,5.41-1.76,6,6,0,0,0,2-4.72A6.27,6.27,0,0,0,188,6a8.1,8.1,0,0,0-5.53-1.74h-7Z"/><path class="cls-3" d="M205.76,35.1H201.2V.49h4.56Z"/><path class="cls-3" d="M238,4.22H226.89V35.1h-4.54V4.22h-11.1V.49H238Z"/><path class="cls-3" d="M248,35.1h-4.56V.49H248Z"/><path class="cls-3" d="M265.18,19,261,23.4V35.1h-4.56V.49H261V17.6L276.33.49h5.51L268.22,15.77,282.91,35.1h-5.47Z"/><path class="cls-3" d="M295.7,19l-4.23,4.4V35.1h-4.56V.49h4.56V17.6L306.85.49h5.51L298.74,15.77,313.43,35.1H308Z"/></g></g></svg>