<svg xmlns="http://www.w3.org/2000/svg" xmlns:xlink="http://www.w3.org/1999/xlink" width="1760" height="1360"><g transform="translate(0 0)"><path d="M32 28.87c0-2.76 2.24-5 5-5h838c2.76 0 5 2.24 5 5v54.26c0 2.76-2.24 5-5 5H37c-2.76 0-5-2.24-5-5z" fill="none"/><use xlink:href="#a" transform="matrix(1,0,0,1,32,23.866666666666667) translate(0 39.611111111111114)"/><path d="M31.33 80H1728" stroke="#999" stroke-width="2" fill="none"/><path d="M1040 37c0-2.76 2.24-5 5-5h678c2.76 0 5 2.24 5 5v38c0 2.76-2.24 5-5 5h-678c-2.76 0-5-2.24-5-5z" fill="none"/><use xlink:href="#b" transform="matrix(1,0,0,1,1040,32) translate(362.8148148148181 28.4444444444444)"/><use xlink:href="#c" transform="matrix(1,0,0,1,1040,32) translate(431.82716049382975 28.4444444444444)"/><use xlink:href="#d" transform="matrix(1,0,0,1,1040,32) translate(509.543209876545 28.4444444444444)"/><use xlink:href="#e" transform="matrix(1,0,0,1,1040,32) translate(533.802469135804 28.4444444444444)"/><use xlink:href="#f" transform="matrix(1,0,0,1,1040,32) translate(601.580246913581 28.4444444444444)"/><use xlink:href="#g" transform="matrix(1,0,0,1,1040,32) translate(638.6172839506178 28.4444444444444)"/><path d="M40 100.73c0-2.76 2.24-5 5-5h112.5c2.76 0 5 2.24 5 5V155c0 2.76-2.24 5-5 5H45c-2.76 0-5-2.24-5-5z" stroke="#666" stroke-width="2" fill="#ccc"/><path d="M123.38 130.12c.76 0 1.1-1.06.58-1.55l-21.78-21.86-21.82 21.92c-.54.5-.18 1.5.57 1.5h3.8V150h11.6v-16.56h9.97V150h11.64v-19.88h5.44zm-33.68-21.5h-6.6v11.63l6.6-6.6v-5.04z" stroke="#dedede" fill="#dedede"/><use xlink:href="#h" transform="matrix(1,0,0,1,45,100.73333333333335) translate(37.525 31.1)"/><path d="M365 492.52c0-2.76 2.24-5 5-5h130c2.76 0 5 2.24 5 5v50c0 2.76-2.24 5-5 5H370c-2.76 0-5-2.24-5-5z" stroke="#666" stroke-width="2" fill="#ffdf71"/><use xlink:href="#i" transform="matrix(1,0,0,1,370,492.5166666666664) translate(31 28.6)"/><path d="M630 565c0-2.76 2.24-5 5-5h120c2.76 0 5 2.24 5 5v30c0 2.76-2.24 5-5 5H635c-2.76 0-5-2.24-5-5z" stroke="#666" stroke-width="2" fill="#ffdf71"/><use xlink:href="#j" transform="matrix(1,0,0,1,635,565) translate(31.049999999999997 19.1)"/><path d="M365 635c0-2.76 2.24-5 5-5h130c2.76 0 5 2.24 5 5v50c0 2.76-2.24 5-5 5H370c-2.76 0-5-2.24-5-5z" stroke="#666" stroke-width="2" fill="#ff8f80"/><use xlink:href="#k" transform="matrix(1,0,0,1,370,635) translate(32.025 28.6)"/><path d="M630 725c0-2.76 2.24-5 5-5h120c2.76 0 5 2.24 5 5v30c0 2.76-2.24 5-5 5H635c-2.76 0-5-2.24-5-5z" stroke="#666" stroke-width="2" fill="#ff8f80"/><use xlink:href="#l" transform="matrix(1,0,0,1,635,725) translate(37.55 18.6)"/><path d="M223 1065c0-2.76 2.24-5 5-5h130c2.76 0 5 2.24 5 5v54.27c0 2.76-2.24 5-5 5H228c-2.76 0-5-2.24-5-5z" stroke="#666" stroke-width="2" fill="#99d2f2"/><use xlink:href="#m" transform="matrix(1,0,0,1,228,1065) translate(46 31.1)"/><path d="M365 411.43c0-2.76 2.24-5 5-5h130c2.76 0 5 2.24 5 5v50c0 2.76-2.24 5-5 5H370c-2.76 0-5-2.24-5-5z" stroke="#666" stroke-width="2" fill="#99d2f2"/><use xlink:href="#n" transform="matrix(1,0,0,1,370,411.43333333333317) translate(36.525 28.6)"/><path d="M222.5 164.9c0-2.76 2.24-5 5-5H360c2.76 0 5 2.24 5 5v54.27c0 2.76-2.24 5-5 5H227.5c-2.76 0-5-2.24-5-5z" stroke="#666" stroke-width="2" fill="#a3d977"/><path d="M312.6 214.17v-27.63c0-1.24-.44-2.4-1.23-3.27l-10.4-11.73c-.36-.4-.8-.7-1.3-.98-.7-.4-1.54-.66-2.38-.66h-22.4v44.26h37.7zm-4.9-5.9h-27.9V205h27.9v3.28zm0-8.18h-27.9v-3.33h27.9v3.32zm0-8.24h-27.9v-3.28h27.9v3.28zm-27.9-11.47h19.7v3.27h-19.7v-3.28z" stroke="#c3e6a7" fill="#c3e6a7"/><use xlink:href="#o" transform="matrix(1,0,0,1,227.5,164.89999999999986) translate(13.524999999999999 31.1)"/><path d="M365 885c0-2.76 2.24-5 5-5h130c2.76 0 5 2.24 5 5v54.27c0 2.76-2.24 5-5 5H370c-2.76 0-5-2.24-5-5z" stroke="#666" stroke-width="2" fill="#a3d977"/><path d="M453.86 934.27v-27.63c0-1.24-.45-2.4-1.24-3.27l-10.4-11.73c-.36-.4-.8-.7-1.3-.98-.7-.4-1.54-.66-2.38-.66h-22.4v44.26h37.72zm-4.92-5.9h-27.88v-3.27h27.88v3.28zm0-8.18h-27.88v-3.33h27.88v3.32zm0-8.24h-27.88v-3.28h27.88v3.28zm-27.88-11.47h19.7v3.27h-19.7v-3.28z" stroke="#c3e6a7" fill="#c3e6a7"/><use xlink:href="#p" transform="matrix(1,0,0,1,370,885) translate(40.5 31.1)"/><path d="M222.5 192.03H106.25c-2.76 0-5-2.24-5-5V160" stroke="#999" stroke-width="2" fill="none"/><path d="M101.25 160v107.62c0 2.77 2.24 5 5 5H225" stroke="#999" stroke-width="2" fill="none"/><path d="M225 247.62c0-2.76 2.24-5 5-5h130c2.76 0 5 2.24 5 5v50c0 2.77-2.24 5-5 5H230c-2.76 0-5-2.23-5-5z" stroke="#666" stroke-width="2" fill="#fff"/><use xlink:href="#q" transform="matrix(1,0,0,1,230,247.6249999999999) translate(53.025 28.6)"/><path d="M101.25 160v845c0 2.76 2.24 5 5 5H225" stroke="#999" stroke-width="2" fill="none"/><path d="M225 985c0-2.76 2.24-5 5-5h130c2.76 0 5 2.24 5 5v50c0 2.76-2.24 5-5 5H230c-2.76 0-5-2.24-5-5z" stroke="#666" stroke-width="2" fill="#f5b5c8"/><use xlink:href="#r" transform="matrix(1,0,0,1,230,985) translate(50 28.6)"/><path d="M365 805c0-2.76 2.24-5 5-5h130c2.76 0 5 2.24 5 5v50c0 2.76-2.24 5-5 5H370c-2.76 0-5-2.24-5-5z" stroke="#666" stroke-width="2" fill="#b391b5"/><use xlink:href="#s" transform="matrix(1,0,0,1,370,805) translate(40.025 28.6)"/><path d="M365 436.43h-65c-2.76 0-5-2.24-5-5v-128.8" stroke="#999" stroke-width="2" fill="none"/><path d="M365 517.52h-65c-2.76 0-5-2.24-5-5v-209.9" stroke="#999" stroke-width="2" fill="none"/><path d="M365 660h-65c-2.76 0-5-2.24-5-5V302.62" stroke="#999" stroke-width="2" fill="none"/><path d="M365 830h-65c-2.76 0-5-2.24-5-5V302.62" stroke="#999" stroke-width="2" fill="none"/><path d="M365 912.13h-65c-2.76 0-5-2.24-5-5v-604.5M223 1092.13H106.25c-2.76 0-5-2.24-5-5V160M630 740h-57.5c-2.76 0-5-2.24-5-5v-70c0-2.76-2.24-5-5-5H505M630 580h-57.5c-2.76 0-5-2.24-5-5v-52.48c0-2.76-2.24-5-5-5H505" stroke="#999" stroke-width="2" fill="none"/><path d="M630 785c0-2.76 2.24-5 5-5h120c2.76 0 5 2.24 5 5v30c0 2.76-2.24 5-5 5H635c-2.76 0-5-2.24-5-5z" stroke="#666" stroke-width="2" fill="#ff8f80"/><use xlink:href="#t" transform="matrix(1,0,0,1,635,785) translate(34 18.6)"/><path d="M630 800h-57.5c-2.76 0-5-2.24-5-5V665c0-2.76-2.24-5-5-5H505" stroke="#999" stroke-width="2" fill="none"/><path d="M815 845c0-2.76 2.24-5 5-5h120c2.76 0 5 2.24 5 5v30c0 2.76-2.24 5-5 5H820c-2.76 0-5-2.24-5-5z" stroke="#666" stroke-width="2" fill="#ff8f80"/><use xlink:href="#u" transform="matrix(1,0,0,1,820,845.0000000000002) translate(45.55 18.6)"/><path d="M815 897c0-2.76 2.24-5 5-5h120c2.76 0 5 2.24 5 5v30c0 2.76-2.24 5-5 5H820c-2.76 0-5-2.24-5-5z" stroke="#666" stroke-width="2" fill="#ff8f80"/><use xlink:href="#v" transform="matrix(1,0,0,1,820,897.0000000000001) translate(46.5 18.6)"/><path d="M815 949c0-2.76 2.24-5 5-5h120c2.76 0 5 2.24 5 5v30c0 2.76-2.24 5-5 5H820c-2.76 0-5-2.24-5-5z" stroke="#666" stroke-width="2" fill="#ff8f80"/><g><use xlink:href="#w" transform="matrix(1,0,0,1,820,949) translate(53.525 18.6)"/></g><path d="M815 912h-22.5c-2.76 0-5-2.24-5-5V805c0-2.76-2.24-5-5-5H760" stroke="#999" stroke-width="2" fill="none"/><path d="M815 964h-22.5c-2.76 0-5-2.24-5-5V805c0-2.76-2.24-5-5-5H760" stroke="#999" stroke-width="2" fill="none"/><path d="M815 860h-22.5c-2.76 0-5-2.24-5-5v-50c0-2.76-2.24-5-5-5H760" stroke="#999" stroke-width="2" fill="none"/><defs><path fill="#999" d="M24 0v-248h52v208h133V0H24" id="x"/><path fill="#999" d="M24 0v-248h195v40H76v63h132v40H76v65h150V0H24" id="y"/><path fill="#999" d="M169-182c-1-43-94-46-97-3 18 66 151 10 154 114 3 95-165 93-204 36-6-8-10-19-12-30l50-8c3 46 112 56 116 5-17-69-150-10-154-114-4-87 153-88 188-35 5 8 8 18 10 28" id="z"/><path fill="#999" d="M240-174c0 40-23 61-54 70L253 0h-59l-57-94H76V0H24v-248c93 4 217-23 216 74zM76-134c48-2 112 12 112-38 0-48-66-32-112-35v73" id="A"/><path fill="#999" d="M195 0l-88-114-31 24V0H24v-248h52v113l112-113h60L142-143 257 0h-62" id="B"/><path fill="#999" d="M24 0v-248h52V0H24" id="C"/><path fill="#999" d="M136-208V0H84v-208H4v-40h212v40h-80" id="D"/><g id="a"><use transform="matrix(0.09876543209876544,0,0,0.09876543209876544,0,0)" xlink:href="#x"/><use transform="matrix(0.09876543209876544,0,0,0.09876543209876544,21.62962962962963,0)" xlink:href="#y"/><use transform="matrix(0.09876543209876544,0,0,0.09876543209876544,45.333333333333336,0)" xlink:href="#z"/><use transform="matrix(0.09876543209876544,0,0,0.09876543209876544,69.03703703703704,0)" xlink:href="#y"/><use transform="matrix(0.09876543209876544,0,0,0.09876543209876544,92.74074074074075,0)" xlink:href="#A"/><use transform="matrix(0.09876543209876544,0,0,0.09876543209876544,118.320987654321,0)" xlink:href="#B"/><use transform="matrix(0.09876543209876544,0,0,0.09876543209876544,143.90123456790124,0)" xlink:href="#A"/><use transform="matrix(0.09876543209876544,0,0,0.09876543209876544,169.4814814814815,0)" xlink:href="#C"/><use transform="matrix(0.09876543209876544,0,0,0.09876543209876544,179.35802469135803,0)" xlink:href="#D"/><use transform="matrix(0.09876543209876544,0,0,0.09876543209876544,200.98765432098764,0)" xlink:href="#C"/><use transform="matrix(0.09876543209876544,0,0,0.09876543209876544,210.8641975308642,0)" xlink:href="#B"/><use transform="matrix(0.09876543209876544,0,0,0.09876543209876544,236.44444444444446,0)" xlink:href="#B"/></g><path fill="#999" d="M185-189c-5-48-123-54-124 2 14 75 158 14 163 119 3 78-121 87-175 55-17-10-28-26-33-46l33-7c5 56 141 63 141-1 0-78-155-14-162-118-5-82 145-84 179-34 5 7 8 16 11 25" id="E"/><path fill="#999" d="M24-231v-30h32v30H24zM24 0v-190h32V0H24" id="F"/><path fill="#999" d="M210-169c-67 3-38 105-44 169h-31v-121c0-29-5-50-35-48C34-165 62-65 56 0H25l-1-190h30c1 10-1 24 2 32 10-44 99-50 107 0 11-21 27-35 58-36 85-2 47 119 55 194h-31v-121c0-29-5-49-35-48" id="G"/><path fill="#999" d="M100-194c63 0 86 42 84 106H49c0 40 14 67 53 68 26 1 43-12 49-29l28 8c-11 28-37 45-77 45C44 4 14-33 15-96c1-61 26-98 85-98zm52 81c6-60-76-77-97-28-3 7-6 17-6 28h103" id="H"/><path fill="#999" d="M117-194c89-4 53 116 60 194h-32v-121c0-31-8-49-39-48C34-167 62-67 57 0H25l-1-190h30c1 10-1 24 2 32 11-22 29-35 61-36" id="I"/><g id="b"><use transform="matrix(0.06172839506172778,0,0,0.06172839506172778,0,0)" xlink:href="#E"/><use transform="matrix(0.06172839506172778,0,0,0.06172839506172778,14.814814814814667,0)" xlink:href="#F"/><use transform="matrix(0.06172839506172778,0,0,0.06172839506172778,19.691358024691162,0)" xlink:href="#G"/><use transform="matrix(0.06172839506172778,0,0,0.06172839506172778,38.14814814814777,0)" xlink:href="#H"/><use transform="matrix(0.06172839506172778,0,0,0.06172839506172778,50.493827160493325,0)" xlink:href="#I"/></g><path fill="#999" d="M160-131c35 5 61 23 61 61C221 17 115-2 30 0v-248c76 3 177-17 177 60 0 33-19 50-47 57zm-97-11c50-1 110 9 110-42 0-47-63-36-110-37v79zm0 115c55-2 124 14 124-45 0-56-70-42-124-44v89" id="J"/><path fill="#999" d="M114-163C36-179 61-72 57 0H25l-1-190h30c1 12-1 29 2 39 6-27 23-49 58-41v29" id="K"/><path fill="#999" d="M177-190C167-65 218 103 67 71c-23-6-38-20-44-43l32-5c15 47 100 32 89-28v-30C133-14 115 1 83 1 29 1 15-40 15-95c0-56 16-97 71-98 29-1 48 16 59 35 1-10 0-23 2-32h30zM94-22c36 0 50-32 50-73 0-42-14-75-50-75-39 0-46 34-46 75s6 73 46 73" id="L"/><g id="c"><use transform="matrix(0.06172839506172778,0,0,0.06172839506172778,0,0)" xlink:href="#J"/><use transform="matrix(0.06172839506172778,0,0,0.06172839506172778,14.814814814814667,0)" xlink:href="#H"/><use transform="matrix(0.06172839506172778,0,0,0.06172839506172778,27.160493827160224,0)" xlink:href="#K"/><use transform="matrix(0.06172839506172778,0,0,0.06172839506172778,34.50617283950583,0)" xlink:href="#L"/><use transform="matrix(0.06172839506172778,0,0,0.06172839506172778,46.851851851851386,0)" xlink:href="#H"/></g><path fill="#999" d="M32 76v-337h29V76H32" id="M"/><use transform="matrix(0.06172839506172778,0,0,0.06172839506172778,0,0)" xlink:href="#M" id="d"/><path fill="#999" d="M240 0l2-218c-23 76-54 145-80 218h-23L58-218 59 0H30v-248h44l77 211c21-75 51-140 76-211h43V0h-30" id="N"/><path fill="#999" d="M141-36C126-15 110 5 73 4 37 3 15-17 15-53c-1-64 63-63 125-63 3-35-9-54-41-54-24 1-41 7-42 31l-33-3c5-37 33-52 76-52 45 0 72 20 72 64v82c-1 20 7 32 28 27v20c-31 9-61-2-59-35zM48-53c0 20 12 33 32 33 41-3 63-29 60-74-43 2-92-5-92 41" id="O"/><path fill="#999" d="M96-169c-40 0-48 33-48 73s9 75 48 75c24 0 41-14 43-38l32 2c-6 37-31 61-74 61-59 0-76-41-82-99-10-93 101-131 147-64 4 7 5 14 7 22l-32 3c-4-21-16-35-41-35" id="P"/><path fill="#999" d="M106-169C34-169 62-67 57 0H25v-261h32l-1 103c12-21 28-36 61-36 89 0 53 116 60 194h-32v-121c2-32-8-49-39-48" id="Q"/><g id="e"><use transform="matrix(0.06172839506172778,0,0,0.06172839506172778,0,0)" xlink:href="#N"/><use transform="matrix(0.06172839506172778,0,0,0.06172839506172778,18.456790123456607,0)" xlink:href="#O"/><use transform="matrix(0.06172839506172778,0,0,0.06172839506172778,30.802469135802163,0)" xlink:href="#K"/><use transform="matrix(0.06172839506172778,0,0,0.06172839506172778,38.14814814814777,0)" xlink:href="#P"/><use transform="matrix(0.06172839506172778,0,0,0.06172839506172778,49.25925925925877,0)" xlink:href="#Q"/></g><path fill="#999" d="M101-251c82-7 93 87 43 132L82-64C71-53 59-42 53-27h129V0H18c2-99 128-94 128-182 0-28-16-43-45-43s-46 15-49 41l-32-3c6-41 34-60 81-64" id="R"/><path fill="#999" d="M68-38c1 34 0 65-14 84H32c9-13 17-26 17-46H33v-38h35" id="S"/><g id="f"><use transform="matrix(0.06172839506172778,0,0,0.06172839506172778,0,0)" xlink:href="#R"/><use transform="matrix(0.06172839506172778,0,0,0.06172839506172778,12.345679012345556,0)" xlink:href="#R"/><use transform="matrix(0.06172839506172778,0,0,0.06172839506172778,24.691358024691112,0)" xlink:href="#S"/></g><path fill="#999" d="M101-251c68 0 85 55 85 127S166 4 100 4C33 4 14-52 14-124c0-73 17-127 87-127zm-1 229c47 0 54-49 54-102s-4-102-53-102c-51 0-55 48-55 102 0 53 5 102 54 102" id="T"/><path fill="#999" d="M27 0v-27h64v-190l-56 39v-29l58-41h29v221h61V0H27" id="U"/><path fill="#999" d="M64 0c3-98 48-159 88-221H18v-27h164v26C143-157 98-101 97 0H64" id="V"/><g id="g"><use transform="matrix(0.06172839506172778,0,0,0.06172839506172778,0,0)" xlink:href="#R"/><use transform="matrix(0.06172839506172778,0,0,0.06172839506172778,12.345679012345556,0)" xlink:href="#T"/><use transform="matrix(0.06172839506172778,0,0,0.06172839506172778,24.691358024691112,0)" xlink:href="#U"/><use transform="matrix(0.06172839506172778,0,0,0.06172839506172778,37.03703703703667,0)" xlink:href="#V"/></g><path fill="#333" d="M233-177c-1 41-23 64-60 70L243 0h-38l-65-103H63V0H30v-248c88 3 205-21 203 71zM63-129c60-2 137 13 137-47 0-61-80-42-137-45v92" id="W"/><path fill="#333" d="M100-194c62-1 85 37 85 99 1 63-27 99-86 99S16-35 15-95c0-66 28-99 85-99zM99-20c44 1 53-31 53-75 0-43-8-75-51-75s-53 32-53 75 10 74 51 75" id="X"/><path fill="#333" d="M59-47c-2 24 18 29 38 22v24C64 9 27 4 27-40v-127H5v-23h24l9-43h21v43h35v23H59v120" id="Y"/><g id="h"><use transform="matrix(0.05,0,0,0.05,0,0)" xlink:href="#W"/><use transform="matrix(0.05,0,0,0.05,12.950000000000001,0)" xlink:href="#X"/><use transform="matrix(0.05,0,0,0.05,22.950000000000003,0)" xlink:href="#X"/><use transform="matrix(0.05,0,0,0.05,32.95,0)" xlink:href="#Y"/></g><path fill="#333" d="M115-194c53 0 69 39 70 98 0 66-23 100-70 100C84 3 66-7 56-30L54 0H23l1-261h32v101c10-23 28-34 59-34zm-8 174c40 0 45-34 45-75 0-40-5-75-45-74-42 0-51 32-51 76 0 43 10 73 51 73" id="Z"/><path fill="#333" d="M141-36C126-15 110 5 73 4 37 3 15-17 15-53c-1-64 63-63 125-63 3-35-9-54-41-54-24 1-41 7-42 31l-33-3c5-37 33-52 76-52 45 0 72 20 72 64v82c-1 20 7 32 28 27v20c-31 9-61-2-59-35zM48-53c0 20 12 33 32 33 41-3 63-29 60-74-43 2-92-5-92 41" id="aa"/><path fill="#333" d="M96-169c-40 0-48 33-48 73s9 75 48 75c24 0 41-14 43-38l32 2c-6 37-31 61-74 61-59 0-76-41-82-99-10-93 101-131 147-64 4 7 5 14 7 22l-32 3c-4-21-16-35-41-35" id="ab"/><path fill="#333" d="M143 0L79-87 56-68V0H24v-261h32v163l83-92h37l-77 82L181 0h-38" id="ac"/><path fill="#333" d="M100-194c63 0 86 42 84 106H49c0 40 14 67 53 68 26 1 43-12 49-29l28 8c-11 28-37 45-77 45C44 4 14-33 15-96c1-61 26-98 85-98zm52 81c6-60-76-77-97-28-3 7-6 17-6 28h103" id="ad"/><path fill="#333" d="M117-194c89-4 53 116 60 194h-32v-121c0-31-8-49-39-48C34-167 62-67 57 0H25l-1-190h30c1 10-1 24 2 32 11-22 29-35 61-36" id="ae"/><path fill="#333" d="M85-194c31 0 48 13 60 33l-1-100h32l1 261h-30c-2-10 0-23-3-31C134-8 116 4 85 4 32 4 16-35 15-94c0-66 23-100 70-100zm9 24c-40 0-46 34-46 75 0 40 6 74 45 74 42 0 51-32 51-76 0-42-9-74-50-73" id="af"/><g id="i"><use transform="matrix(0.05,0,0,0.05,0,0)" xlink:href="#Z"/><use transform="matrix(0.05,0,0,0.05,10,0)" xlink:href="#aa"/><use transform="matrix(0.05,0,0,0.05,20,0)" xlink:href="#ab"/><use transform="matrix(0.05,0,0,0.05,29,0)" xlink:href="#ac"/><use transform="matrix(0.05,0,0,0.05,38,0)" xlink:href="#ad"/><use transform="matrix(0.05,0,0,0.05,48,0)" xlink:href="#ae"/><use transform="matrix(0.05,0,0,0.05,58,0)" xlink:href="#af"/></g><path fill="#333" d="M240 0l2-218c-23 76-54 145-80 218h-23L58-218 59 0H30v-248h44l77 211c21-75 51-140 76-211h43V0h-30" id="ag"/><path fill="#333" d="M24 0v-261h32V0H24" id="ah"/><path fill="#333" d="M135-143c-3-34-86-38-87 0 15 53 115 12 119 90S17 21 10-45l28-5c4 36 97 45 98 0-10-56-113-15-118-90-4-57 82-63 122-42 12 7 21 19 24 35" id="ai"/><g id="j"><use transform="matrix(0.05,0,0,0.05,0,0)" xlink:href="#ag"/><use transform="matrix(0.05,0,0,0.05,14.950000000000001,0)" xlink:href="#X"/><use transform="matrix(0.05,0,0,0.05,24.950000000000003,0)" xlink:href="#af"/><use transform="matrix(0.05,0,0,0.05,34.95,0)" xlink:href="#ad"/><use transform="matrix(0.05,0,0,0.05,44.95,0)" xlink:href="#ah"/><use transform="matrix(0.05,0,0,0.05,48.900000000000006,0)" xlink:href="#ai"/></g><path fill="#333" d="M101-234c-31-9-42 10-38 44h38v23H63V0H32v-167H5v-23h27c-7-52 17-82 69-68v24" id="aj"/><path fill="#333" d="M114-163C36-179 61-72 57 0H25l-1-190h30c1 12-1 29 2 39 6-27 23-49 58-41v29" id="ak"/><g id="k"><use transform="matrix(0.05,0,0,0.05,0,0)" xlink:href="#aj"/><use transform="matrix(0.05,0,0,0.05,5,0)" xlink:href="#ak"/><use transform="matrix(0.05,0,0,0.05,10.95,0)" xlink:href="#X"/><use transform="matrix(0.05,0,0,0.05,20.95,0)" xlink:href="#ae"/><use transform="matrix(0.05,0,0,0.05,30.950000000000003,0)" xlink:href="#Y"/><use transform="matrix(0.05,0,0,0.05,35.95,0)" xlink:href="#ad"/><use transform="matrix(0.05,0,0,0.05,45.95,0)" xlink:href="#ae"/><use transform="matrix(0.05,0,0,0.05,55.95,0)" xlink:href="#af"/></g><path fill="#333" d="M108 0H70L1-190h34L89-25l56-165h34" id="al"/><path fill="#333" d="M24-231v-30h32v30H24zM24 0v-190h32V0H24" id="am"/><path fill="#333" d="M206 0h-36l-40-164L89 0H53L-1-190h32L70-26l43-164h34l41 164 42-164h31" id="an"/><g id="l"><use transform="matrix(0.05,0,0,0.05,0,0)" xlink:href="#al"/><use transform="matrix(0.05,0,0,0.05,9,0)" xlink:href="#am"/><use transform="matrix(0.05,0,0,0.05,12.949999999999998,0)" xlink:href="#ad"/><use transform="matrix(0.05,0,0,0.05,22.95,0)" xlink:href="#an"/><use transform="matrix(0.05,0,0,0.05,35.9,0)" xlink:href="#ai"/></g><g id="m"><use transform="matrix(0.05,0,0,0.05,0,0)" xlink:href="#af"/><use transform="matrix(0.05,0,0,0.05,10,0)" xlink:href="#X"/><use transform="matrix(0.05,0,0,0.05,20,0)" xlink:href="#ab"/><use transform="matrix(0.05,0,0,0.05,29,0)" xlink:href="#ai"/></g><path fill="#333" d="M177-190C167-65 218 103 67 71c-23-6-38-20-44-43l32-5c15 47 100 32 89-28v-30C133-14 115 1 83 1 29 1 15-40 15-95c0-56 16-97 71-98 29-1 48 16 59 35 1-10 0-23 2-32h30zM94-22c36 0 50-32 50-73 0-42-14-75-50-75-39 0-46 34-46 75s6 73 46 73" id="ao"/><g id="n"><use transform="matrix(0.05,0,0,0.05,0,0)" xlink:href="#ab"/><use transform="matrix(0.05,0,0,0.05,9,0)" xlink:href="#X"/><use transform="matrix(0.05,0,0,0.05,19,0)" xlink:href="#ae"/><use transform="matrix(0.05,0,0,0.05,29,0)" xlink:href="#aj"/><use transform="matrix(0.05,0,0,0.05,34,0)" xlink:href="#am"/><use transform="matrix(0.05,0,0,0.05,37.95,0)" xlink:href="#ao"/><use transform="matrix(0.05,0,0,0.05,47.95,0)" xlink:href="#ai"/></g><path fill="#333" d="M115-194c55 1 70 41 70 98S169 2 115 4C84 4 66-9 55-30l1 105H24l-1-265h31l2 30c10-21 28-34 59-34zm-8 174c40 0 45-34 45-75s-6-73-45-74c-42 0-51 32-51 76 0 43 10 73 51 73" id="ap"/><path fill="#333" d="M33 0v-38h34V0H33" id="aq"/><path fill="#333" d="M24-231v-30h32v30H24zM-9 49c24 4 33-6 33-30v-209h32V24c2 40-23 58-65 49V49" id="ar"/><g id="o"><use transform="matrix(0.05,0,0,0.05,0,0)" xlink:href="#ap"/><use transform="matrix(0.05,0,0,0.05,10,0)" xlink:href="#aa"/><use transform="matrix(0.05,0,0,0.05,20,0)" xlink:href="#ab"/><use transform="matrix(0.05,0,0,0.05,29,0)" xlink:href="#ac"/><use transform="matrix(0.05,0,0,0.05,38,0)" xlink:href="#aa"/><use transform="matrix(0.05,0,0,0.05,48,0)" xlink:href="#ao"/><use transform="matrix(0.05,0,0,0.05,58,0)" xlink:href="#ad"/><use transform="matrix(0.05,0,0,0.05,68,0)" xlink:href="#aq"/><use transform="matrix(0.05,0,0,0.05,73,0)" xlink:href="#ar"/><use transform="matrix(0.05,0,0,0.05,76.95,0)" xlink:href="#ai"/><use transform="matrix(0.05,0,0,0.05,85.95,0)" xlink:href="#X"/><use transform="matrix(0.05,0,0,0.05,95.95,0)" xlink:href="#ae"/></g><g id="p"><use transform="matrix(0.05,0,0,0.05,0,0)" xlink:href="#aa"/><use transform="matrix(0.05,0,0,0.05,10,0)" xlink:href="#ap"/><use transform="matrix(0.05,0,0,0.05,20,0)" xlink:href="#ap"/><use transform="matrix(0.05,0,0,0.05,30,0)" xlink:href="#aq"/><use transform="matrix(0.05,0,0,0.05,35,0)" xlink:href="#Y"/><use transform="matrix(0.05,0,0,0.05,40,0)" xlink:href="#ai"/></g><g id="q"><use transform="matrix(0.05,0,0,0.05,0,0)" xlink:href="#ai"/><use transform="matrix(0.05,0,0,0.05,9,0)" xlink:href="#ak"/><use transform="matrix(0.05,0,0,0.05,14.949999999999998,0)" xlink:href="#ab"/></g><g id="r"><use transform="matrix(0.05,0,0,0.05,0,0)" xlink:href="#aa"/><use transform="matrix(0.05,0,0,0.05,10,0)" xlink:href="#ap"/><use transform="matrix(0.05,0,0,0.05,20,0)" xlink:href="#ap"/></g><path fill="#333" d="M84 4C-5 8 30-112 23-190h32v120c0 31 7 50 39 49 72-2 45-101 50-169h31l1 190h-30c-1-10 1-25-2-33-11 22-28 36-60 37" id="as"/><g id="s"><use transform="matrix(0.05,0,0,0.05,0,0)" xlink:href="#ak"/><use transform="matrix(0.05,0,0,0.05,5.95,0)" xlink:href="#X"/><use transform="matrix(0.05,0,0,0.05,15.949999999999998,0)" xlink:href="#as"/><use transform="matrix(0.05,0,0,0.05,25.950000000000003,0)" xlink:href="#Y"/><use transform="matrix(0.05,0,0,0.05,30.950000000000003,0)" xlink:href="#ad"/><use transform="matrix(0.05,0,0,0.05,40.95,0)" xlink:href="#ai"/></g><g id="t"><use transform="matrix(0.05,0,0,0.05,0,0)" xlink:href="#aa"/><use transform="matrix(0.05,0,0,0.05,10,0)" xlink:href="#ai"/><use transform="matrix(0.05,0,0,0.05,19,0)" xlink:href="#ai"/><use transform="matrix(0.05,0,0,0.05,28,0)" xlink:href="#ad"/><use transform="matrix(0.05,0,0,0.05,38,0)" xlink:href="#Y"/><use transform="matrix(0.05,0,0,0.05,43,0)" xlink:href="#ai"/></g><path fill="#333" d="M210-169c-67 3-38 105-44 169h-31v-121c0-29-5-50-35-48C34-165 62-65 56 0H25l-1-190h30c1 10-1 24 2 32 10-44 99-50 107 0 11-21 27-35 58-36 85-2 47 119 55 194h-31v-121c0-29-5-49-35-48" id="at"/><g id="u"><use transform="matrix(0.05,0,0,0.05,0,0)" xlink:href="#am"/><use transform="matrix(0.05,0,0,0.05,3.95,0)" xlink:href="#at"/><use transform="matrix(0.05,0,0,0.05,18.900000000000002,0)" xlink:href="#ao"/></g><g id="v"><use transform="matrix(0.05,0,0,0.05,0,0)" xlink:href="#ab"/><use transform="matrix(0.05,0,0,0.05,9,0)" xlink:href="#ai"/><use transform="matrix(0.05,0,0,0.05,18,0)" xlink:href="#ai"/></g><g id="w"><use transform="matrix(0.05,0,0,0.05,0,0)" xlink:href="#ar"/><use transform="matrix(0.05,0,0,0.05,3.95,0)" xlink:href="#ai"/></g></defs></g></svg>